/* XPM */
static char * toolbarimg_xpm[] = {
"480 30 11 1",
" 	c None",
".	c #7C7C7C",
"+	c #CECECE",
"@	c #000000",
"#	c #606060",
"$	c #9B9B9B",
"%	c #FFFFFF",
"&	c #C00000",
"*	c #00C000",
"=	c #0000C0",
"-	c #808080",
"................................................................................................................................................................................................................................................................................................................................................................................................................................................................................................",
".+++++++++++++++++++++++++++++...+++++++++++++++++++++++++++++...+++++++++++++++++++++++++++++...+++++++++++++++++++++++++++++...+++++++++++++++++++++++++++++..+++++++++++++++++++++++++++++..+++++++++++++++++++++++++++++..+++++++++++++++++++++++++++++....+++++++++++++++++++++++++++++....................................................................................................................................................................................................",
".+@@@@@@@@@@@@@@@@@@@@@@@@@@@@#..+@@@@@@@@@@@@@@@@@@@@@@@@@@@@#..+@@@@@@@@@@@@@@@@@@@@@@@@@@@@#..+@@@@@@@@@@@@@@@@@@@@@@@@@@@@#..+@@@@@@@@@@@@@@@@@@@@@@@@@@@@#.+@@@@@@@@@@@@@@@@@@@@@@@@@@@@#.+@@@@@@@@@@@@@@@@@@@@@@@@@@@@#.+@@@@@@@@@@@@@@@@@@@@@@@@@@@@#...+@@@@@@@@@@@@@@@@@@@@@@@@@@@@#.............................................................................................++@++.................................................................................................",
".+@$$$$$$$$$$$$$$$$$$$$$$$$$$@#..+@$$$$$$$$$$$$$$$$$$$$$$$$$$@#..+@$$$$$$$$$$$$$$$$$$$$$$$$$$@#..+@$$$$$$$$$$$$$$$$$$$$$$$$$$@#..+@$$$$$$$$$$$$$$$$$$$$$$$$$$@#.+@$$$$$$$$$$$$$$$$$$$$$$$$$$@#.+@$$$$$$$$$$$$$$$$$$$$$$$$$$@#.+@$$$$$$$$$$$$$$$$$$$$$$$$$$@#...+@$$$$$$$$$$$$$$$$$$$$$$$$$$@#...........................................................................................++@@$@@++...............................................................................................",
".+@$$$$$$$$$$$$$$$$$$$$$$$$$$@#..+@$$$$$$$$$$$$$$$$$$$$$$$$$$@#..+@$$@$$$$$$$$$$$$$$$$$$$$$$$@#..+@$$@$$$$$$$$$$$$$$$$$$$$$$$@#..+@$$$$$$$$$$$$$$$$$$$$$$$$$$@#.+@$$$$$$$$$$$$$$$$$$$$$$$$$$@#.+@$$$$$$$$$$$$$$$$$$$$$$$$$$@#.+@$$$$$$$$$$$$$$$$$$$$$$$$$$@#...+@$$$$$$$$$$$$@@$$$$$$$$$$$$@#.........................................................................................++@@$$$$$@@++.............................................................................................",
".+@$$$$$$$$$$$$$$$$$$$$$$$$$$@#..+@$$$$$$$$$$$$$$$$$$$$$$$$$$@#..+@$$$%$$$$$$$$$$$$$$$$$$$$$$@#..+@$$$%%%$$$$$$$$$$$$$$$$$$$$@#..+@$$&&&&&&&&&&&&&&&&&&&&&&$$@#.+@$$**********************$$@#.+@$$======================$$@#.+@$$$$$$$$$$$$$$$$$$$$$$$$$$@#...+@$$$@@@@@@@@@@@@@@@@@@@@$$$@#.....................+++++++++++++++++++++++++++++...........+++++++++++++++++++.......++@@$$$$$$$$$@@++.......+++++++++++++++++++...........+++++++++++++++++++++++++++++.........................",
".+@$$$@@@@@@@@@@@@@@@@@@@@$$$@#..+@$$$$$$$$$$$$$$$$$$$$$$$$$$@#..+@$$$$%$$$$$$$$$$$$$$$$$$$$$@#..+@$$$$$$%%%%$$$$$$$$$$$$$$$$@#..+@$$&&&&&&&&&&&&&&&&&&&&&&$$@#.+@$$**********************$$@#.+@$$======================$$@#.+@$$$$$$$$$$$$$$$$$$$$$$$$$$@#...+@$$$$@$$$$$@@@@@@$$$$$@$$$$@#....................+@@@@@@@@@@@@@@@@@@@@@@@@@@@@#..........+@@@@@@@@@@@@@@@@@@#......+@@$$$$$$$$$$$$$@@#......+@@@@@@@@@@@@@@@@@@#..........+@@@@@@@@@@@@@@@@@@@@@@@@@@@@#........................",
".+@$$@%%%@%%%%%%%%%%%%@%%%@$$@#..+@$$$$$$@@@@@@$$$$$$$$$$$$$$@#..+@$$$$$%$$$$$$$$$$$$$$$$$$$$@#..+@$$$$$$$$$$%%$$$$$$$$$$$$$$@#..+@$$&&&&&&&&&&&&&&&&&&&&&&$$@#.+@$$**********************$$@#.+@$$======================$$@#.+@$$$$$$$$$$$$$$$$$$$$$$$$$$@#...+@$$$$@$$$$$@$@@$@$$$$$@$$$$@#...................+@$$$$$$$$$$$$$$$$$$$$$$$$$$$@#.........+@$$$$$$$$$$$$$$$$$@#......+@$$$$$$$$$$$$$$$@#......+@$$$$$$$$$$$$$$$$$@#.........+@$$$$$$$$$$$$$$$$$$$$$$$$$$$@#.......................",
".+@$$@%%%@%%%%%%%%%%%%@%%%@$$@#..+@$$$$$@@----@@$$$$$$$$$$$$$@#..+@$$$$$$%$$$$$$$$$$$$$$$$$$$@#..+@$$$$$$$$$$$$%%$$$$$$$$$$$$@#..+@$$&&&&&&&&&&&&&&&&&&&&&&$$@#.+@$$**********************$$@#.+@$$======================$$@#.+@$$@@@@@@@@@@@@@@@@@@@@@@$$@#...+@$$$$@$$$$$$$@@$$$$$$$@$$$$@#..................+@$$$$$$$$$$$$$$$$$$$$$$$$$$$$@#........+@$$$$$$$$$$$$$$$$$$@#......+@$$$$$$$$$$$$$$$@#......+@$$$$$$$$$$$$$$$$$$@#........+@$$$$$$$$$$$$$$$$$$$$$$$$$$$$@#......................",
".+@$$@%%%@%%%%%%%%%%%%@%%%@$$@#..+@$$$$$@-------@@@@@@@@@$$$$@#..+@$$$$$$$%$$$$$$$$$$$$$$$$$$@#..+@$$$$$$$$$$$$$$%$$$$$$$$$$$@#..+@$$&&&&&&&&&&&&&&&&&&&&&&$$@#.+@$$**********************$$@#.+@$$======================$$@#.+@$$@%%%%%%%%%%%%%%%%%%%%@$$@#...+@$$$$@$$$$$$$@@$$$$$$$@$$$$@#.................+@$$$$$$$$$$$$$$$$$$$$$$$$$$$$$@#.......+@$$$$$$$$$$$$$$$$$$$@#......+@$$$$$$$$$$$$$$$@#......+@$$$$$$$$$$$$$$$$$$$@#.......+@$$$$$$$$$$$$$$$$$$$$$$$$$$$$$@#........++++++++++...",
".+@$$@%%%@%%%%%%%%%%%%@%%%@$$@#..+@$$$$$@---------------@$$$$@#..+@$$$$$$$$%$$$$$$$$$$$$$$$$$@#..+@$$$$$$$$$$$$$$$%$$$$$$$$$$@#..+@$$&&&&&&&&&&&&&&&&&&&&&&$$@#.+@$$**********************$$@#.+@$$======================$$@#.+@$$@%%%%%%%%%%%%%%%%%%%%@$$@#...+@$$$$@$$$$$$$@@$$$$$$$@$$$$@#................+@$$$$$$$$$$$$$$$$$$$$$$$$$$$$$$@#......+@$$$$$$$$$$$$$$$$$$$$@#......+@$$$$$$$$$$$$$$$@#......+@$$$$$$$$$$$$$$$$$$$$@#......+@$$$$$$$$$$$$$$$$$$$$$$$$$$$$$$@#.......+@@@@@@@@@#..",
".+@$$@%%%@%%%%%%%%%%%%@%%%@$$@#..+@$$@@@@@@@@@@@@@@@----@$$$$@#..+@$$$$$$$$$%$$$$$$$$$$$$$$$$@#..+@$$$$$$$$$$$$$$$$%$$$$$$$$$@#..+@$$&&&&&&&&&&&&&&&&&&&&&&$$@#.+@$$**********************$$@#.+@$$======================$$@#.+@$$@%%%%%%%%%%%%%%%%%%%%@$$@#...+@$$$$@$$$$$$$@@$$$$$$$@$$$$@#...............+@$$$$$$$$$$$$$$$$$$$$$$$$$$$$$$$@#.....+@$$$$$$$$$$$$$$$$$$$$$@#......+@$$$$$$$$$$$$$$$@#......+@$$$$$$$$$$$$$$$$$$$$$@#.....+@$$$$$$$$$$$$$$$$$$$$$$$$$$$$$$$@#......+@@%%%%%@@#..",
".+@$$@%%%@%%%%%%%%%%%%@%%%@$$@#..+@$$@%%%%%%%%%%%%%%@---@$$$$@#..+@$$$$$$$$$$%$$$$$$$$$$$$$$$@#..+@$$$$$$$$$$$$$$$$$%$$$$$$$$@#..+@$$&&&&&&&&&&&&&&&&&&&&&&$$@#.+@$$**********************$$@#.+@$$======================$$@#.+@$$@%%%%%%%%%%%%@@%%%%%%@$$@#...+@$$$$@$$$$$$$@@$$$$$$$@$$$$@#..............+@$$$$$$$$$$$$$$$$$$$$$$$$$$$$$$$$@#....+@$$$$$$$$$$$$$$$$$$$$$$@#......+@$$$$$$$$$$$$$$$@#......+@$$$$$$$$$$$$$$$$$$$$$$@#....+@$$$$$$$$$$$$$$$$$$$$$$$$$$$$$$$$@#.....+@%@%%%@%@#..",
".+@$$@%%%@%%%%%%%%%%%%@%%%@$$@#..+@$$@%%%%%%%%%%%%%%@---@$$$$@#..+@$$$$$$$$$$$%$$$$$$$$$$$$$$@#..+@$$$$$$$$$$$$$$$$$$%$$$$$$$@#..+@$$&&&&&&&&&&&&&&&&&&&&&&$$@#.+@$$**********************$$@#.+@$$======================$$@#.+@$$@%%%%%%%%%%%@%%@%%%%%@$$@#...+@$$$$@$$$$$$$@@$$$$$$$@$$$$@#.............+@$$$$$$$$$$$$$$$$$$$$$$$$$$$$$$$$$@#...+@$$$$$$$$$$$$$$$$$$$$$$$@#......+@@@@@@@@@@@@@@@@@#......+@$$$$$$$$$$$$$$$$$$$$$$$@#...+@$$$$$$$$$$$$$$$$$$$$$$$$$$$$$$$$$@#....+@%%@%@%%@#..",
".+@$$@%%%@%%%%%%%%%%%%@%%%@$$@#..+@$$@%%%%%%%%%%%%%%@---@$$$$@#..+@$$$$$$$$$$$$%$$$$$$$$$$$$$@#..+@$$$$$$$$$$$$$$$$$$%$$$$$$$@#..+@$$&&&&&&&&&&&&&&&&&&&&&&$$@#.+@$$**********************$$@#.+@$$======================$$@#.+@$$@%%%%%%%%%%%@%%@%%%%%@$$@#...+@$$$$@$$$$$$$@@$$$$$$$@$$$$@#............+@$$$$$$$$$$$$$$$$$$$$$$$$$$$$$$$$$$@#..+@$$$$$$$$$$$$$$$$$$$$$$$$@#.......##################......+@$$$$$$$$$$$$$$$$$$$$$$$$@#..+@$$$$$$$$$$$$$$$$$$$$$$$$$$$$$$$$$$@#...+@%%%@%%%@#..",
".+@$$@%%%@%%%%%%%%%%%%@%%%@$$@#..+@$$$@%%%@@@@@@@@@ %@--@$$$$@#..+@$$$$$$$$$$$$$%$$$$$$$$$$$$@#..+@$$$$$$$$$$$$$$$$$$$%$$$$$$@#..+@$$&&&&&&&&&&&&&&&&&&&&&&$$@#.+@$$**********************$$@#.+@$$======================$$@#.+@$$@%%%%%%%%%%%%@@%%%%%%@$$@#...+@$$$$%$$$$$$$@@$$$$$$$%$$$$@#............@$$$$$$$$$$$$$$$$$$$$$$$$$$$$$$$$$$$@#..@$$$$$$$$$$$$$$$$$$$$$$$$$@#...............................+@$$$$$$$$$$$$$$$$$$$$$$$$$@..+@$$$$$$$$$$$$$$$$$$$$$$$$$$$$$$$$$$$@...+@%%@%@%%@#..",
".+@$$@%%%@@@@@@@@@@@@@@%%%@$$@#..+@$$$@%%%@%%%%@%%@%%@--@$$$$@#..+@$$$$$$$$$$$$$$%$$$$$$$$$$$@#..+@$$$$$$$$$$$$$$$$$$$%$$$$$$@#..+@$$&&&&&&&&&&&&&&&&&&&&&&$$@#.+@$$**********************$$@#.+@$$======================$$@#.+@$$@%%%%%%%%%%%%%%%%%%%%@$$@#...+@$$$$%$$$$$$$@@$$$$$$$%$$$$@#............@$$$$$$$$$$$$$$$$$$$$$$$$$$$$$$$$$$$@#..@$$$$$$$$$$$$$$$$$$$$$$$$$@#.......+++++++++++++++++.......+@$$$$$$$$$$$$$$$$$$$$$$$$$@..+@$$$$$$$$$$$$$$$$$$$$$$$$$$$$$$$$$$$@...+@%@%%%@%@#..",
".+@$$@%%%%%%%%%%%%%%%%%%%%@$$@#..+@$$$@%%%@%%%@%@%@%%@--@$$$$@#..+@$$$$$$$$$$$$$$$%$$$$$$$$$$@#..+@$$$$$$$$$$$$$$$$$$$$%$$$$$@#..+@$$&&&&&&&&&&&&&&&&&&&&&&$$@#.+@$$**********************$$@#.+@$$======================$$@#.+@$$@%%%%%%%%%%%%%%%%%%%%@$$@#...+@$$$%$%$$$$$$@@$$$$$$%$%$$$@#............#@$$$$$$$$$$$$$$$$$$$$$$$$$$$$$$$$$$@#..#@$$$$$$$$$$$$$$$$$$$$$$$$@#......+@@@@@@@@@@@@@@@@@#......+@$$$$$$$$$$$$$$$$$$$$$$$$@#..+@$$$$$$$$$$$$$$$$$$$$$$$$$$$$$$$$$$@#...+@@%%%%%@@#..",
".+@$$@%%%%%%%%%%%%%%%%%%%%@$$@#..+@$$$@%%%@%%%%@%%@%%@--@$$$$@#..+@$$$$$$$$$$$$$$$$%$$$$$$$$$@#..+@$$$$$$$$$$$$$$$$$$$$%$$$$$@#..+@$$&&&&&&&&&&&&&&&&&&&&&&$$@#.+@$$**********************$$@#.+@$$======================$$@#.+@$$@%%%%%%%%%%%%%%%%%%%%@$$@#...+@$$$%$%$$$$$$@@$$$$$$%$%$$$@#.............#@$$$$$$$$$$$$$$$$$$$$$$$$$$$$$$$$$@#...#@$$$$$$$$$$$$$$$$$$$$$$$@#......+@$$$$$$$$$$$$$$$@#......+@$$$$$$$$$$$$$$$$$$$$$$$@#...+@$$$$$$$$$$$$$$$$$$$$$$$$$$$$$$$$$@#....+@@@@@@@@@#..",
".+@$$@%%%%%%%%%%%%%%%%%%%%@$$@#..+@$$$$@%%@#######@%%%@-@$$$$@#..+@$$$$$$$$$$$$$$$$$%$$$$$$$$@#..+@$$$$$$$$$$$$$$$$$$$$$%$$$$@#..+@$$&&&&&&&&&&&&&&&&&&&&&&$$@#.+@$$**********************$$@#.+@$$======================$$@#.+@$$@####################@$$@#...+@$$%$$$%$$$$$@@$$$$$%$$$%$$@#..............#@$$$$$$$$$$$$$$$$$$$$$$$$$$$$$$$$@#....#@$$$$$$$$$$$$$$$$$$$$$$@#......+@$$$$$$$$$$$$$$$@#......+@$$$$$$$$$$$$$$$$$$$$$$@#....+@$$$$$$$$$$$$$$$$$$$$$$$$$$$$$$$$@#......##########..",
".+@$$@%%%%------------%%%%@$$@#..+@$$$$@%%@@@@@@@@@%%%@-@$$$$@#..+@$$$$$$$$$$$$$$$$$$%$$$$$$$@#..+@$$$$$$$$$$$$$$$$$$$$$%$$$$@#..+@$$&&&&&&&&&&&&&&&&&&&&&&$$@#.+@$$**********************$$@#.+@$$======================$$@#.+@$$@$$$$$$$$$$$$$$$$$$$$@$$@#...+@$$%$$$%$$$$$@@$$$$$%$$$%$$@#...............#@$$$$$$$$$$$$$$$$$$$$$$$$$$$$$$$@#.....#@$$$$$$$$$$$$$$$$$$$$$@#......+@$$$$$$$$$$$$$$$@#......+@$$$$$$$$$$$$$$$$$$$$$@#.....+@$$$$$$$$$$$$$$$$$$$$$$$$$$$$$$$@#...................",
".+@$$@%%%%------------%%%%@$$@#..+@$$$$@%%%%%%%%%%%%%%@-@$$$$@#..+@$$$$$$$$$$$$$$$$$$$%$$$$$$@#..+@$$$$$$$$$$$$$$$$$$$$$$%$$$@#..+@$$&&&&&&&&&&&&&&&&&&&&&&$$@#.+@$$**********************$$@#.+@$$======================$$@#.+@$$@$$$##############$$$@$$@#...+@$@$$$$$@$$$$@@$$$$@$$$$$@$@#................#@$$$$$$$$$$$$$$$$$$$$$$$$$$$$$$@#......#@$$$$$$$$$$$$$$$$$$$$@#......+@$$$$$$$$$$$$$$$@#......+@$$$$$$$$$$$$$$$$$$$$@#......+@$$$$$$$$$$$$$$$$$$$$$$$$$$$$$$@#....................",
".+@$$@%%%%------------%%%%@$$@#..+@$$$$$@%%%%%%%%%%%%%%@@$$$$@#..+@$$$$$$$$$$$$$$$$$$$$%$$$$$@#..+@$$$$$$$$$$$$$$$$$$$$$$%$$$@#..+@$$&&&&&&&&&&&&&&&&&&&&&&$$@#.+@$$**********************$$@#.+@$$======================$$@#.+@$$@$$$$$$$$$$$$$$$$$$$$@$$@#...+@$$@@@@@$$$$$@@$$$$$@@@@@$$@#.................#@$$$$$$$$$$$$$$$$$$$$$$$$$$$$$@#.......#@$$$$$$$$$$$$$$$$$$$@#......+@$$$$$$$$$$$$$$$@#......+@$$$$$$$$$$$$$$$$$$$@#.......+@$$$$$$$$$$$$$$$$$$$$$$$$$$$$$@#.....................",
".+@$$@%%%%------------%%%%@$$@#..+@$$$$$@%%%%%%%%%%%%%%@-$$$$@#..+@$$$$$$$$$$$$$$$$$$$$$%$$$$@#..+@$$$$$$$$$$$$$$$$$$$$$$$%$$@#..+@$$&&&&&&&&&&&&&&&&&&&&&&$$@#.+@$$**********************$$@#.+@$$======================$$@#.+@$$@@@@@@@@@@@@@@@@@@@@@@$$@#...+@$$$$$$$$$$$$@@$$$$$$$$$$$$@#..................#@$$$$$$$$$$$$$$$$$$$$$$$$$$$$@#........#@$$$$$$$$$$$$$$$$$$@#......+@$$$$$$$$$$$$$$$@#......+@$$$$$$$$$$$$$$$$$$@#........+@$$$$$$$$$$$$$$$$$$$$$$$$$$$$@#......................",
".+@$$@%%%%------------%%%%@$$@#..+@$$$$$-@@@@@@@@@@@@@@@-$$$$@#..+@$$$$$$$$$$$$$$$$$$$$$$%$$$@#..+@$$$$$$$$$$$$$$$$$$$$$$$%$$@#..+@$$&&&&&&&&&&&&&&&&&&&&&&$$@#.+@$$**********************$$@#.+@$$======================$$@#.+@$$$$$$$$$$$$$$$$$$$$$$$$$$@#...+@$$$$$$$$$$$$@@$$$$$$$$$$$$@#...................#@$$$$$$$$$$$$$$$$$$$$$$$$$$$@#.........#@$$$$$$$$$$$$$$$$$@#......+@@$$$$$$$$$$$$$@@#......+@$$$$$$$$$$$$$$$$$@#.........+@$$$$$$$$$$$$$$$$$$$$$$$$$$$@#.......................",
".+@$$@@@@@@@@@@@@@@@@@@@@@@$$@#..+@$$$$$$$$$$$$$$$$$$$$$$$$$$@#..+@$$$$$$$$$$$$$$$$$$$$$$$@$$@#..+@$$$$$$$$$$$$$$$$$$$$$$$@$$@#..+@$$&&&&&&&&&&&&&&&&&&&&&&$$@#.+@$$**********************$$@#.+@$$======================$$@#.+@$$$$$$$$$$$$$$$$$$$$$$$$$$@#...+@$$$$$$$$$$@@@@@@$$$$$$$$$$@#....................#@@@@@@@@@@@@@@@@@@@@@@@@@@@@#..........#@@@@@@@@@@@@@@@@@@#.......##@@$$$$$$$$$@@##.......+@@@@@@@@@@@@@@@@@@#..........+@@@@@@@@@@@@@@@@@@@@@@@@@@@@#........................",
".+@$$$$$$$$$$$$$$$$$$$$$$$$$$@#..+@$$$$$$$$$$$$$$$$$$$$$$$$$$@#..+@$$$$$$$$$$$$$$$$$$$$$$$$$$@#..+@$$$$$$$$$$$$$$$$$$$$$$$$$$@#..+@$$$$$$$$$$$$$$$$$$$$$$$$$$@#.+@$$$$$$$$$$$$$$$$$$$$$$$$$$@#.+@$$$$$$$$$$$$$$$$$$$$$$$$$$@#.+@$$$$$$$$$$$$$$$$$$$$$$$$$$@#...+@$$$$$$$$$@@@@@@@@$$$$$$$$$@#.....................#############################...........###################.........##@@$$$$$@@##.........+##################...........+############################.........................",
".+@$$$$$$$$$$$$$$$$$$$$$$$$$$@#..+@$$$$$$$$$$$$$$$$$$$$$$$$$$@#..+@$$$$$$$$$$$$$$$$$$$$$$$$$$@#..+@$$$$$$$$$$$$$$$$$$$$$$$$$$@#..+@$$$$$$$$$$$$$$$$$$$$$$$$$$@#.+@$$$$$$$$$$$$$$$$$$$$$$$$$$@#.+@$$$$$$$$$$$$$$$$$$$$$$$$$$@#.+@$$$$$$$$$$$$$$$$$$$$$$$$$$@#...+@$$$$$$$$$$$$$$$$$$$$$$$$$$@#...........................................................................................##@@$@@##...............................................................................................",
".+@@@@@@@@@@@@@@@@@@@@@@@@@@@@#..+@@@@@@@@@@@@@@@@@@@@@@@@@@@@#..+@@@@@@@@@@@@@@@@@@@@@@@@@@@@#..+@@@@@@@@@@@@@@@@@@@@@@@@@@@@#..+@@@@@@@@@@@@@@@@@@@@@@@@@@@@#.+@@@@@@@@@@@@@@@@@@@@@@@@@@@@#.+@@@@@@@@@@@@@@@@@@@@@@@@@@@@#.+@@@@@@@@@@@@@@@@@@@@@@@@@@@@#...+@@@@@@@@@@@@@@@@@@@@@@@@@@@@#.............................................................................................##@##.................................................................................................",
"..#############################...#############################...#############################...#############################...#############################..#############################..#############################..#############################....#############################..................................................................................................................................................................................................."};
