/* XPM */
static char * toolbarimg_reverse_xpm[] = {
"480 30 12 1",
" 	c None",
".	c #7C7C7C",
"+	c #313131",
"@	c #838383",
"#	c #000000",
"$	c #9F9F9F",
"%	c #646464",
"&	c #FFFFFF",
"*	c #C00000",
"=	c #00C000",
"-	c #0000C0",
";	c #7F7F7F",
"................................................................................................................................................................................................................................................................................................................................................................................................................................................................................................",
".+++++++++++++++++++++++++++++...+++++++++++++++++++++++++++++@..+++++++++++++++++++++++++++++@..+++++++++++++++++++++++++++++@..+++++++++++++++++++++++++++++..+++++++++++++++++++++++++++++..+++++++++++++++++++++++++++++..+++++++++++++++++++++++++++++@...+++++++++++++++++++++++++++++....................................................................................................................................................................................................",
".+############################$..+############################$..+############################$..+############################$..+############################$.+############################$.+############################$.+############################$...+############################$.............................................................................................++#++.................................................................................................",
".+#%%%%%%%%%%%%%%%%%%%%%%%%%%#$..+#%%%%%%%%%%%%%%%%%%%%%%%%%%#$..+#%%%%%%%%%%%%%%%%%%%%%%%%%%#$..+#%%%%%%%%%%%%%%%%%%%%%%%%%%#$..+#%%%%%%%%%%%%%%%%%%%%%%%%%%#$.+#%%%%%%%%%%%%%%%%%%%%%%%%%%#$.+#%%%%%%%%%%%%%%%%%%%%%%%%%%#$.+#%%%%%%%%%%%%%%%%%%%%%%%%%%#$...+#%%%%%%%%%%%%%%%%%%%%%%%%%%#$...........................................................................................++##%##++...............................................................................................",
".+#%%%%%%%%%%%%%%%%%%%%%%%%%%#$..+#%%%%%%%%%%%%%%%%%%%%%%%%%%#$..+#%%&%%%%%%%%%%%%%%%%%%%%%%%#$..+#%%&%%%%%%%%%%%%%%%%%%%%%%%#$..+#%%%%%%%%%%%%%%%%%%%%%%%%%%#$.+#%%%%%%%%%%%%%%%%%%%%%%%%%%#$.+#%%%%%%%%%%%%%%%%%%%%%%%%%%#$.+#%%%%%%%%%%%%%%%%%%%%%%%%%%#$...+#%%%%%%%%%%%%&&%%%%%%%%%%%%#$.........................................................................................++##%%%%%##++.............................................................................................",
".+#%%%%%%%%%%%%%%%%%%%%%%%%%%#$..+#%%%%%%%%%%%%%%%%%%%%%%%%%%#$..+#%%%#%%%%%%%%%%%%%%%%%%%%%%#$..+#%%%###%%%%%%%%%%%%%%%%%%%%#$..+#%%**********************%%#$.+#%%======================%%#$.+#%%----------------------%%#$.+#%%%%%%%%%%%%%%%%%%%%%%%%%%#$...+#%%%&&&&&&&&&&&&&&&&&&&&%%%#$.....................+++++++++++++++++++++++++++++............++++++++++++++++++.......++##%%%%%%%%%##++.......+++++++++++++++++++...........+++++++++++++++++++++++++++++.........................",
".+#%%%&&&&&&&&&&&&&&&&&&&&%%%#$..+#%%%%%%%%%%%%%%%%%%%%%%%%%%#$..+#%%%%#%%%%%%%%%%%%%%%%%%%%%#$..+#%%%%%%####%%%%%%%%%%%%%%%%#$..+#%%**********************%%#$.+#%%======================%%#$.+#%%----------------------%%#$.+#%%%%%%%%%%%%%%%%%%%%%%%%%%#$...+#%%%%&%%%%%&&&&&&%%%%%&%%%%#$....................+############################$...........+#################$......+##%%%%%%%%%%%%%##$......+##################$..........+############################$........................",
".+#%%&###&############&###&%%#$..+#%%%%%%&&&&&&%%%%%%%%%%%%%%#$..+#%%%%%#%%%%%%%%%%%%%%%%%%%%#$..+#%%%%%%%%%%##%%%%%%%%%%%%%%#$..+#%%**********************%%#$.+#%%======================%%#$.+#%%----------------------%%#$.+#%%%%%%%%%%%%%%%%%%%%%%%%%%#$...+#%%%%&%%%%%&%&&%&%%%%%&%%%%#$...................+#%%%%%%%%%%%%%%%%%%%%%%%%%%%#$..........+#%%%%%%%%%%%%%%%%#$......+#%%%%%%%%%%%%%%%#$......+#%%%%%%%%%%%%%%%%%#$.........+#%%%%%%%%%%%%%%%%%%%%%%%%%%%#$.......................",
".+#%%&###&############&###&%%#$..+#%%%%%&&;;;;&&%%%%%%%%%%%%%#$..+#%%%%%%#%%%%%%%%%%%%%%%%%%%#$..+#%%%%%%%%%%%%##%%%%%%%%%%%%#$..+#%%**********************%%#$.+#%%======================%%#$.+#%%----------------------%%#$.+#%%&&&&&&&&&&&&&&&&&&&&&&%%#$...+#%%%%&%%%%%%%&&%%%%%%%&%%%%#$..................+#%%%%%%%%%%%%%%%%%%%%%%%%%%%%#$.........+#%%%%%%%%%%%%%%%%%#$......+#%%%%%%%%%%%%%%%#$......+#%%%%%%%%%%%%%%%%%%#$........+#%%%%%%%%%%%%%%%%%%%%%%%%%%%%#$......................",
".+#%%&###&############&###&%%#$..+#%%%%%&;;;;;;;&&&&&&&&&%%%%#$..+#%%%%%%%#%%%%%%%%%%%%%%%%%%#$..+#%%%%%%%%%%%%%%#%%%%%%%%%%%#$..+#%%**********************%%#$.+#%%======================%%#$.+#%%----------------------%%#$.+#%%&####################&%%#$...+#%%%%&%%%%%%%&&%%%%%%%&%%%%#$.................+#%%%%%%%%%%%%%%%%%%%%%%%%%%%%%#$........+#%%%%%%%%%%%%%%%%%%#$......+#%%%%%%%%%%%%%%%#$......+#%%%%%%%%%%%%%%%%%%%#$.......+#%%%%%%%%%%%%%%%%%%%%%%%%%%%%%#$........++++++++++...",
".+#%%&###&############&###&%%#$..+#%%%%%&;;;;;;;;;;;;;;;&%%%%#$..+#%%%%%%%%#%%%%%%%%%%%%%%%%%#$..+#%%%%%%%%%%%%%%%#%%%%%%%%%%#$..+#%%**********************%%#$.+#%%======================%%#$.+#%%----------------------%%#$.+#%%&####################&%%#$...+#%%%%&%%%%%%%&&%%%%%%%&%%%%#$................+#%%%%%%%%%%%%%%%%%%%%%%%%%%%%%%#$.......+#%%%%%%%%%%%%%%%%%%%#$......+#%%%%%%%%%%%%%%%#$......+#%%%%%%%%%%%%%%%%%%%%#$......+#%%%%%%%%%%%%%%%%%%%%%%%%%%%%%%#$.......+#########$..",
".+#%%&###&############&###&%%#$..+#%%&&&&&&&&&&&&&&&;;;;&%%%%#$..+#%%%%%%%%%#%%%%%%%%%%%%%%%%#$..+#%%%%%%%%%%%%%%%%#%%%%%%%%%#$..+#%%**********************%%#$.+#%%======================%%#$.+#%%----------------------%%#$.+#%%&####################&%%#$...+#%%%%&%%%%%%%&&%%%%%%%&%%%%#$...............+#%%%%%%%%%%%%%%%%%%%%%%%%%%%%%%%#$......+#%%%%%%%%%%%%%%%%%%%%#$......+#%%%%%%%%%%%%%%%#$......+#%%%%%%%%%%%%%%%%%%%%%#$.....+#%%%%%%%%%%%%%%%%%%%%%%%%%%%%%%%#$......+#########$..",
".+#%%&###&############&###&%%#$..+#%%&##############&;;;&%%%%#$..+#%%%%%%%%%%#%%%%%%%%%%%%%%%#$..+#%%%%%%%%%%%%%%%%%#%%%%%%%%#$..+#%%**********************%%#$.+#%%======================%%#$.+#%%----------------------%%#$.+#%%&############&&######&%%#$...+#%%%%&%%%%%%%&&%%%%%%%&%%%%#$..............+#%%%%%%%%%%%%%%%%%%%%%%%%%%%%%%%%#$.....+#%%%%%%%%%%%%%%%%%%%%%#$......+#%%%%%%%%%%%%%%%#$......+#%%%%%%%%%%%%%%%%%%%%%%#$....+#%%%%%%%%%%%%%%%%%%%%%%%%%%%%%%%%#$.....+##&###&##$..",
".+#%%&###&############&###&%%#$..+#%%&##############&;;;&%%%%#$..+#%%%%%%%%%%%#%%%%%%%%%%%%%%#$..+#%%%%%%%%%%%%%%%%%%#%%%%%%%#$..+#%%**********************%%#$.+#%%======================%%#$.+#%%----------------------%%#$.+#%%&###########&##&#####&%%#$...+#%%%%&%%%%%%%&&%%%%%%%&%%%%#$.............+#%%%%%%%%%%%%%%%%%%%%%%%%%%%%%%%%%#$....+#%%%%%%%%%%%%%%%%%%%%%%#$......+#################$......+#%%%%%%%%%%%%%%%%%%%%%%%#$...+#%%%%%%%%%%%%%%%%%%%%%%%%%%%%%%%%%#$....+###&#&###$..",
".+#%%&###&############&###&%%#$..+#%%&##############&;;;&%%%%#$..+#%%%%%%%%%%%%#%%%%%%%%%%%%%#$..+#%%%%%%%%%%%%%%%%%%#%%%%%%%#$..+#%%**********************%%#$.+#%%======================%%#$.+#%%----------------------%%#$.+#%%&###########&##&#####&%%#$...+#%%%%&%%%%%%%&&%%%%%%%&%%%%#$............+#%%%%%%%%%%%%%%%%%%%%%%%%%%%%%%%%%%#$...+#%%%%%%%%%%%%%%%%%%%%%%%#$.......$$$$$$$$$$$$$$$$$$......+#%%%%%%%%%%%%%%%%%%%%%%%%#$..+#%%%%%%%%%%%%%%%%%%%%%%%%%%%%%%%%%%#$...+####&####$..",
".+#%%&###&############&###&%%#$..+#%%%&###&&&&&&&&& #&;;&%%%%#$..+#%%%%%%%%%%%%%#%%%%%%%%%%%%#$..+#%%%%%%%%%%%%%%%%%%%#%%%%%%#$..+#%%**********************%%#$.+#%%======================%%#$.+#%%----------------------%%#$.+#%%&############&&######&%%#$...+#%%%%#%%%%%%%&&%%%%%%%#%%%%#$............#%%%%%%%%%%%%%%%%%%%%%%%%%%%%%%%%%%%#$...#%%%%%%%%%%%%%%%%%%%%%%%%#$...............................+#%%%%%%%%%%%%%%%%%%%%%%%%%#..+#%%%%%%%%%%%%%%%%%%%%%%%%%%%%%%%%%%%#...+###&#&###$..",
".+#%%&###&&&&&&&&&&&&&&###&%%#$..+#%%%&###&####&##&##&;;&%%%%#$..+#%%%%%%%%%%%%%%#%%%%%%%%%%%#$..+#%%%%%%%%%%%%%%%%%%%#%%%%%%#$..+#%%**********************%%#$.+#%%======================%%#$.+#%%----------------------%%#$.+#%%&####################&%%#$...+#%%%%#%%%%%%%&&%%%%%%%#%%%%#$............#%%%%%%%%%%%%%%%%%%%%%%%%%%%%%%%%%%%#$...#%%%%%%%%%%%%%%%%%%%%%%%%#$.......+++++++++++++++++.......+#%%%%%%%%%%%%%%%%%%%%%%%%%#..+#%%%%%%%%%%%%%%%%%%%%%%%%%%%%%%%%%%%#...+##&###&##$..",
".+#%%&####################&%%#$..+#%%%&###&###&#&#&##&;;&%%%%#$..+#%%%%%%%%%%%%%%%#%%%%%%%%%%#$..+#%%%%%%%%%%%%%%%%%%%%#%%%%%#$..+#%%**********************%%#$.+#%%======================%%#$.+#%%----------------------%%#$.+#%%&####################&%%#$...+#%%%#%#%%%%%%&&%%%%%%#%#%%%#$............$#%%%%%%%%%%%%%%%%%%%%%%%%%%%%%%%%%%#$...$#%%%%%%%%%%%%%%%%%%%%%%%#$......+#################$......+#%%%%%%%%%%%%%%%%%%%%%%%%#$..+#%%%%%%%%%%%%%%%%%%%%%%%%%%%%%%%%%%#$...+#########$..",
".+#%%&####################&%%#$..+#%%%&###&####&##&##&;;&%%%%#$..+#%%%%%%%%%%%%%%%%#%%%%%%%%%#$..+#%%%%%%%%%%%%%%%%%%%%#%%%%%#$..+#%%**********************%%#$.+#%%======================%%#$.+#%%----------------------%%#$.+#%%&####################&%%#$...+#%%%#%#%%%%%%&&%%%%%%#%#%%%#$.............$#%%%%%%%%%%%%%%%%%%%%%%%%%%%%%%%%%#$....$#%%%%%%%%%%%%%%%%%%%%%%#$......+#%%%%%%%%%%%%%%%#$......+#%%%%%%%%%%%%%%%%%%%%%%%#$...+#%%%%%%%%%%%%%%%%%%%%%%%%%%%%%%%%%#$....+#########$..",
".+#%%&####################&%%#$..+#%%%%&##&$$$$$$$&###&;&%%%%#$..+#%%%%%%%%%%%%%%%%%#%%%%%%%%#$..+#%%%%%%%%%%%%%%%%%%%%%#%%%%#$..+#%%**********************%%#$.+#%%======================%%#$.+#%%----------------------%%#$.+#%%&$$$$$$$$$$$$$$$$$$$$&%%#$...+#%%#%%%#%%%%%&&%%%%%#%%%#%%#$..............$#%%%%%%%%%%%%%%%%%%%%%%%%%%%%%%%%#$.....$#%%%%%%%%%%%%%%%%%%%%%#$......+#%%%%%%%%%%%%%%%#$......+#%%%%%%%%%%%%%%%%%%%%%%#$....+#%%%%%%%%%%%%%%%%%%%%%%%%%%%%%%%%#$......$$$$$$$$$$..",
".+#%%&####;;;;;;;;;;;;####&%%#$..+#%%%%&##&&&&&&&&&###&;&%%%%#$..+#%%%%%%%%%%%%%%%%%%#%%%%%%%#$..+#%%%%%%%%%%%%%%%%%%%%%#%%%%#$..+#%%**********************%%#$.+#%%======================%%#$.+#%%----------------------%%#$.+#%%&%%%%%%%%%%%%%%%%%%%%&%%#$...+#%%#%%%#%%%%%&&%%%%%#%%%#%%#$...............$#%%%%%%%%%%%%%%%%%%%%%%%%%%%%%%%#$......$#%%%%%%%%%%%%%%%%%%%%#$......+#%%%%%%%%%%%%%%%#$......+#%%%%%%%%%%%%%%%%%%%%%#$.....+#%%%%%%%%%%%%%%%%%%%%%%%%%%%%%%%#$...................",
".+#%%&####;;;;;;;;;;;;####&%%#$..+#%%%%&##############&;&%%%%#$..+#%%%%%%%%%%%%%%%%%%%#%%%%%%#$..+#%%%%%%%%%%%%%%%%%%%%%%#%%%#$..+#%%**********************%%#$.+#%%======================%%#$.+#%%----------------------%%#$.+#%%&%%%$$$$$$$$$$$$$$%%%&%%#$...+#%&%%%%%&%%%%&&%%%%&%%%%%&%#$................$#%%%%%%%%%%%%%%%%%%%%%%%%%%%%%%#$.......$#%%%%%%%%%%%%%%%%%%%#$......+#%%%%%%%%%%%%%%%#$......+#%%%%%%%%%%%%%%%%%%%%#$......+#%%%%%%%%%%%%%%%%%%%%%%%%%%%%%%#$....................",
".+#%%&####;;;;;;;;;;;;####&%%#$..+#%%%%%&##############&&%%%%#$..+#%%%%%%%%%%%%%%%%%%%%#%%%%%#$..+#%%%%%%%%%%%%%%%%%%%%%%#%%%#$..+#%%**********************%%#$.+#%%======================%%#$.+#%%----------------------%%#$.+#%%&%%%%%%%%%%%%%%%%%%%%&%%#$...+#%%&&&&&%%%%%&&%%%%%&&&&&%%#$.................$#%%%%%%%%%%%%%%%%%%%%%%%%%%%%%#$........$#%%%%%%%%%%%%%%%%%%#$......+#%%%%%%%%%%%%%%%#$......+#%%%%%%%%%%%%%%%%%%%#$.......+#%%%%%%%%%%%%%%%%%%%%%%%%%%%%%#$.....................",
".+#%%&####;;;;;;;;;;;;####&%%#$..+#%%%%%&##############&;%%%%#$..+#%%%%%%%%%%%%%%%%%%%%%#%%%%#$..+#%%%%%%%%%%%%%%%%%%%%%%%#%%#$..+#%%**********************%%#$.+#%%======================%%#$.+#%%----------------------%%#$.+#%%&&&&&&&&&&&&&&&&&&&&&&%%#$...+#%%%%%%%%%%%%&&%%%%%%%%%%%%#$..................$#%%%%%%%%%%%%%%%%%%%%%%%%%%%%#$.........$#%%%%%%%%%%%%%%%%%#$......+#%%%%%%%%%%%%%%%#$......+#%%%%%%%%%%%%%%%%%%#$........+#%%%%%%%%%%%%%%%%%%%%%%%%%%%%#$......................",
".+#%%&####;;;;;;;;;;;;####&%%#$..+#%%%%%;&&&&&&&&&&&&&&&;%%%%#$..+#%%%%%%%%%%%%%%%%%%%%%%#%%%#$..+#%%%%%%%%%%%%%%%%%%%%%%%#%%#$..+#%%**********************%%#$.+#%%======================%%#$.+#%%----------------------%%#$.+#%%%%%%%%%%%%%%%%%%%%%%%%%%#$...+#%%%%%%%%%%%%&&%%%%%%%%%%%%#$...................$#%%%%%%%%%%%%%%%%%%%%%%%%%%%#$..........$#%%%%%%%%%%%%%%%%#$......+##%%%%%%%%%%%%%##$......+#%%%%%%%%%%%%%%%%%#$.........+#%%%%%%%%%%%%%%%%%%%%%%%%%%%#$.......................",
".+#%%&&&&&&&&&&&&&&&&&&&&&&%%#$..+#%%%%%%%%%%%%%%%%%%%%%%%%%%#$..+#%%%%%%%%%%%%%%%%%%%%%%%&%%#$..+#%%%%%%%%%%%%%%%%%%%%%%%&%%#$..+#%%**********************%%#$.+#%%======================%%#$.+#%%----------------------%%#$.+#%%%%%%%%%%%%%%%%%%%%%%%%%%#$...+#%%%%%%%%%%&&&&&&%%%%%%%%%%#$....................$############################$...........$#################$.......$$##%%%%%%%%%##$$.......+##################$..........+############################$........................",
".+#%%%%%%%%%%%%%%%%%%%%%%%%%%#$..+#%%%%%%%%%%%%%%%%%%%%%%%%%%#$..+#%%%%%%%%%%%%%%%%%%%%%%%%%%#$..+#%%%%%%%%%%%%%%%%%%%%%%%%%%#$..+#%%%%%%%%%%%%%%%%%%%%%%%%%%#$.+#%%%%%%%%%%%%%%%%%%%%%%%%%%#$.+#%%%%%%%%%%%%%%%%%%%%%%%%%%#$.+#%%%%%%%%%%%%%%%%%%%%%%%%%%#$...+#%%%%%%%%%&&&&&&&&%%%%%%%%%#$.....................$$$$$$$$$$$$$$$$$$$$$$$$$$$$$............$$$$$$$$$$$$$$$$$$.........$$##%%%%%##$$.........+$$$$$$$$$$$$$$$$$$...........+$$$$$$$$$$$$$$$$$$$$$$$$$$$$.........................",
".+#%%%%%%%%%%%%%%%%%%%%%%%%%%#$..+#%%%%%%%%%%%%%%%%%%%%%%%%%%#$..+#%%%%%%%%%%%%%%%%%%%%%%%%%%#$..+#%%%%%%%%%%%%%%%%%%%%%%%%%%#$..+#%%%%%%%%%%%%%%%%%%%%%%%%%%#$.+#%%%%%%%%%%%%%%%%%%%%%%%%%%#$.+#%%%%%%%%%%%%%%%%%%%%%%%%%%#$.+#%%%%%%%%%%%%%%%%%%%%%%%%%%#$...+#%%%%%%%%%%%%%%%%%%%%%%%%%%#$...........................................................................................$$##%##$$...............................................................................................",
".+############################$..+############################$..+############################$..+############################$..+############################$.+############################$.+############################$.+############################$...+############################$.............................................................................................$$#$$.................................................................................................",
"..$$$$$$$$$$$$$$$$$$$$$$$$$$$$$..@$$$$$$$$$$$$$$$$$$$$$$$$$$$$$..@$$$$$$$$$$$$$$$$$$$$$$$$$$$$$..@$$$$$$$$$$$$$$$$$$$$$$$$$$$$$...$$$$$$$$$$$$$$$$$$$$$$$$$$$$$..$$$$$$$$$$$$$$$$$$$$$$$$$$$$$..$$$$$$$$$$$$$$$$$$$$$$$$$$$$$.@$$$$$$$$$$$$$$$$$$$$$$$$$$$$$....$$$$$$$$$$$$$$$$$$$$$$$$$$$$$..................................................................................................................................................................................................."};
