/* XPM */
static const char * zcmimage[] = {
"32 32 37 1",
" 	c None",
".	c #000000",
"+	c #130000",
"@	c #270000",
"#	c #3A0000",
"$	c #4E0000",
"%	c #620000",
"&	c #750000",
"*	c #890000",
"=	c #9C0000",
"-	c #B00000",
";	c #001300",
">	c #002700",
",	c #003A00",
"'	c #004E00",
")	c #006200",
"!	c #007500",
"~	c #008900",
"{	c #009C00",
"]	c #00B000",
"^	c #000013",
"/	c #000027",
"(	c #00003A",
"_	c #00004E",
":	c #000062",
"<	c #000075",
"[	c #000089",
"}	c #00009C",
"|	c #0000B0",
"1	c #FFFFFF",
"2	c #550A0A",
"3	c #501C1C",
"4	c #FBF9F9",
"5	c #630101",
"6	c #F8F3F3",
"7	c #9C0101",
"8	c #11B511",
"................................",
"..+@#$%&*=-.;>,')!~{].^/(_:<[}|.",
"..+@#$%&*=-.;>,')!~{].^/(_:<[}|.",
"..+11$%&*=-.;>,')!~{].^/(_:<[}|.",
"..+112%&*=-.;>,')!~{].^/(_:<[}|.",
"..+@34%&*=-.;>,')!~{].^/(_:<[}|.",
"..+@#15&*=-.;>,')!~{].^/(_:<[}|.",
"..+@#$6&*=-.;>,')!~{].^/(_:<[}|.",
"..+@#$1&*=-.;>,')!~{].^/(_:<[}|.",
"..+@#$%1*=-.;>,')!~{].^/(_:<[}|.",
"..+@#$%1*=-.;>,')!~{].^/(_:<[}|.",
"..+@#$%&17-.;>,')!~{].^/(_:<[}|.",
"..+@#$%&*1-.;>,')!~{].^/(_:<[}|.",
"..+@#$%&*1-.;>,')!~{].^/(_:<[}|.",
"..+@#$%&*=1.;>,')!~{].^/(_:<[}|.",
"..+@#$%&*=-1;>,')!~{].^/(_:<[}|.",
"..+@#$%&*=-1;>,')!~{].^/(_:<[}|.",
"..+@#$%&*=-.1>,')!~{].^/(_:<[}|.",
"..+@#$%&*=-.;11')!~{].^/(_:<[}|.",
"..+@#$%&*=-.;11')!~{].^/(_:<[}|.",
"..+@#$%&*=-.;>,1)!~{].^/(_:<[}|.",
"..+@#$%&*=-.;>,'1!~{].^/(_:<[}|.",
"..+@#$%&*=-.;>,')1~{].^/(_:<[}|.",
"..+@#$%&*=-.;>,')!118.^/(_:<[}|.",
"..+@#$%&*=-.;>,')!~{1.^/(_:<[}|.",
"..+@#$%&*=-.;>,')!~{]11/(_:<[}|.",
"..+@#$%&*=-.;>,')!~{].^11_:<[}|.",
"..+@#$%&*=-.;>,')!~{].^/(1111}|.",
"..+@#$%&*=-.;>,')!~{].^/(_:11}|.",
"..+@#$%&*=-.;>,')!~{].^/(_:<[}|.",
"..+@#$%&*=-.;>,')!~{].^/(_:<[}|.",
"................................"};
